<svg version="1.2" xmlns="http://www.w3.org/2000/svg" fill="black" viewBox="0 0 28 28" width="28" height="28">
	<title>01222-svg</title>
	<defs>
		<filter x="-50%" y="-50%" width="200%" height="200%" id="f1" ><feDropShadow dx="0.6427876096865394" dy="0.766044443118978" stdDeviation="0.8333333333333334" flood-color="#000000" flood-opacity=".3"/></filter>
	</defs>
	<style>
		.s0 { filter: url(#f1);stroke: #ffffff;paint-order:stroke fill markers;stroke-linejoin: round;stroke-width: 2 } 
		.s1 { fill: #ffffff } 
	</style>
	<path id="Circle" class="s0" d="m13 25c-6.6 0-12-5.4-12-12 0-6.6 5.4-12 12-12 6.6 0 12 5.4 12 12 0 6.6-5.4 12-12 12z"/>
	<path id="Icon" class="s1" d="m12.7 2.7c0 0-0.2 0.1-0.2 0.1-0.1 0-0.3 0-0.3 0.1-0.1 0-0.2 0.1-0.3 0.1-0.1 0-0.2 0.1-0.3 0.1 0 0.1-0.1 0.1-0.2 0.2 0 0-0.1 0.1-0.2 0.2-0.1 0-0.2 0.1-0.2 0.2-0.1 0.1-0.2 0.2-0.2 0.2-0.1 0.1-0.1 0.2-0.2 0.3 0 0.1-0.1 0.2-0.1 0.3 0 0 0 0.2-0.1 0.2 0 0.1 0 0.2 0 0.3 0 0.1-0.1 0.2-0.1 0.3 0 0.1 0 0.2 0.1 0.3 0 0.1 0 0.3 0 0.4 0 0 0.1 0.2 0.1 0.3 0 0.1 0.1 0.2 0.1 0.3 0.1 0.1 0.1 0.2 0.2 0.3 0 0.1 0.1 0.2 0.2 0.2 0 0.1 0.1 0.2 0.2 0.3 0 0 0.2 0.1 0.2 0.2 0.1 0 0.2 0.1 0.3 0.1 0 0.1 0.2 0.1 0.2 0.2 0.1 0 0.2 0 0.3 0.1 0.1 0 0.2 0 0.3 0.1 0.1 0 0.2 0 0.2 0 0.1 0 0.3 0 0.4 0 0.1 0 0.3 0 0.3 0 0.1 0 0.2 0 0.3 0 0.1-0.1 0.2-0.1 0.3-0.1 0.1-0.1 0.2-0.1 0.3-0.1 0-0.1 0.1-0.1 0.2-0.2 0.1 0 0.2-0.1 0.3-0.1 0-0.1 0.1-0.2 0.2-0.2 0-0.1 0.1-0.2 0.2-0.3 0 0 0.1-0.1 0.2-0.2 0-0.1 0.1-0.2 0.2-0.3 0-0.1 0.1-0.2 0.1-0.3 0-0.1 0.1-0.3 0.1-0.3 0-0.1 0-0.3 0-0.4 0 0 0-0.2 0-0.3 0-0.1 0-0.2 0-0.3 0-0.1 0-0.2-0.1-0.3 0-0.1 0-0.2 0-0.2-0.1-0.1-0.1-0.2-0.2-0.3 0-0.1-0.1-0.2-0.1-0.3-0.1 0-0.1-0.1-0.2-0.2 0-0.1-0.1-0.2-0.2-0.2-0.1-0.1-0.2-0.2-0.3-0.2 0-0.1-0.1-0.2-0.2-0.2 0 0-0.1-0.1-0.2-0.1-0.1-0.1-0.2-0.1-0.3-0.1-0.1-0.1-0.2-0.1-0.3-0.1-0.1 0-0.2-0.1-0.3-0.1-0.1 0-0.2 0-0.3 0-0.1 0-0.3 0-0.4 0zm-3.3 6.3c-0.1 0-0.2 0-0.3 0-0.1 0-0.2 0.1-0.3 0.1-0.1 0-0.2 0.1-0.3 0.1-0.1 0.1-0.3 0.1-0.3 0.2-0.1 0-0.2 0.1-0.3 0.2 0 0-0.1 0.1-0.2 0.1 0 0.1-0.1 0.2-0.1 0.2-0.1 0.1-0.1 0.2-0.2 0.2 0 0.1-0.1 0.2-0.1 0.3-0.1 0.1-0.1 0.3-0.2 0.3 0 0.1 0 0.2 0 0.3-0.1 0.1-0.1 0.2-0.1 0.3 0 0.1 0 1.3 0 4.2 0 4 0 4.1 0 4.2 0 0.1 0.1 0.2 0.1 0.2 0 0.1 0.1 0.2 0.1 0.2 0 0 0.1 0.1 0.1 0.2 0.1 0 0.2 0.1 0.2 0.1 0 0 0.1 0.1 0.2 0.1 0 0 0.1 0 0.2 0 0.1 0.1 0.2 0.1 0.3 0.1q0.1 0 0.2-0.1c0.1 0 0.2 0 0.2-0.1 0.1 0 0.2 0 0.2-0.1 0 0 0.1 0 0.1-0.1 0.1 0 0.1-0.1 0.2-0.1 0-0.1 0-0.1 0.1-0.2 0 0 0-0.1 0-0.2 0.1 0 0.1-0.2 0.1-3.4 0-3 0-3.3 0-3.3q0-0.1 0-0.1 0.1-0.1 0.1-0.1 0.1 0 0.1 0 0.1 0 0.1 0 0 0 0.1 0.1 0 0 0 0.1c0.1 0 0.1 0.7 0.1 4.3v4.2h6.6v-8.5q0.1-0.1 0.1-0.1 0.1-0.1 0.1-0.1 0.1 0 0.1 0 0 0 0.1 0.1 0 0 0.1 0 0 0.1 0 0.1c0 0 0 1.3 0 3.3 0 3.3 0 3.3 0 3.4 0.1 0.1 0.1 0.2 0.1 0.2 0 0.1 0.1 0.1 0.1 0.2 0 0 0.1 0.1 0.1 0.1 0.1 0.1 0.1 0.1 0.2 0.2q0.1 0 0.1 0.1c0.1 0 0.2 0 0.2 0q0.1 0.1 0.3 0.1 0.1 0 0.2 0c0.1-0.1 0.2-0.1 0.3-0.1 0 0 0.1-0.1 0.2-0.1 0 0 0.1-0.1 0.1-0.1 0.1-0.1 0.1-0.1 0.2-0.2 0 0 0-0.1 0.1-0.1 0-0.1 0-0.2 0-0.2l0.1-0.2c0-8.1 0-8.3-0.1-8.4 0-0.1 0-0.3 0-0.3 0-0.1-0.1-0.3-0.1-0.4-0.1-0.1-0.1-0.2-0.2-0.3 0 0-0.1-0.1-0.2-0.2 0-0.1-0.1-0.2-0.2-0.3-0.1-0.1-0.2-0.2-0.3-0.2-0.1-0.1-0.2-0.2-0.3-0.2 0 0-0.1-0.1-0.2-0.1-0.1-0.1-0.2-0.1-0.3-0.1-0.1-0.1-0.2-0.1-0.3-0.1h-0.2c-5.7 0-7.4 0-7.4 0z"/>
	<g id="Background">
	</g>
</svg>